<mxfile host="app.diagrams.net" modified="2020-11-06T07:24:53.481Z" agent="5.0 (Windows)" etag="61rdzz8PcHM-fvS9Lcit" version="13.9.2" type="github">
  <diagram id="Q9l4Aj6OS9bpXnwTEv4X" name="Page-1">
    <mxGraphModel dx="1038" dy="587" grid="1" gridSize="10" guides="1" tooltips="1" connect="1" arrows="1" fold="1" page="1" pageScale="1" pageWidth="827" pageHeight="1169" math="0" shadow="0">
      <root>
        <mxCell id="0" />
        <mxCell id="1" parent="0" />
        <mxCell id="7U7u2tzZs3FJr7_SHi5N-1" value="销售管理系统" style="rounded=0;whiteSpace=wrap;html=1;" vertex="1" parent="1">
          <mxGeometry x="320" y="70" width="120" height="60" as="geometry" />
        </mxCell>
        <mxCell id="7U7u2tzZs3FJr7_SHi5N-23" style="edgeStyle=orthogonalEdgeStyle;rounded=0;orthogonalLoop=1;jettySize=auto;html=1;endArrow=none;endFill=0;" edge="1" parent="1" source="7U7u2tzZs3FJr7_SHi5N-2" target="7U7u2tzZs3FJr7_SHi5N-1">
          <mxGeometry relative="1" as="geometry">
            <Array as="points">
              <mxPoint x="120" y="190" />
              <mxPoint x="380" y="190" />
            </Array>
          </mxGeometry>
        </mxCell>
        <mxCell id="7U7u2tzZs3FJr7_SHi5N-2" value="处理订单" style="rounded=0;whiteSpace=wrap;html=1;" vertex="1" parent="1">
          <mxGeometry x="60" y="220" width="120" height="60" as="geometry" />
        </mxCell>
        <mxCell id="7U7u2tzZs3FJr7_SHi5N-24" style="edgeStyle=orthogonalEdgeStyle;rounded=0;orthogonalLoop=1;jettySize=auto;html=1;endArrow=none;endFill=0;" edge="1" parent="1" source="7U7u2tzZs3FJr7_SHi5N-3" target="7U7u2tzZs3FJr7_SHi5N-1">
          <mxGeometry relative="1" as="geometry" />
        </mxCell>
        <mxCell id="7U7u2tzZs3FJr7_SHi5N-3" value="库存管理" style="rounded=0;whiteSpace=wrap;html=1;" vertex="1" parent="1">
          <mxGeometry x="320" y="220" width="120" height="60" as="geometry" />
        </mxCell>
        <mxCell id="7U7u2tzZs3FJr7_SHi5N-25" style="edgeStyle=orthogonalEdgeStyle;rounded=0;orthogonalLoop=1;jettySize=auto;html=1;endArrow=none;endFill=0;" edge="1" parent="1" source="7U7u2tzZs3FJr7_SHi5N-4" target="7U7u2tzZs3FJr7_SHi5N-1">
          <mxGeometry relative="1" as="geometry">
            <Array as="points">
              <mxPoint x="640" y="190" />
              <mxPoint x="380" y="190" />
            </Array>
          </mxGeometry>
        </mxCell>
        <mxCell id="7U7u2tzZs3FJr7_SHi5N-4" value="销售统计" style="rounded=0;whiteSpace=wrap;html=1;" vertex="1" parent="1">
          <mxGeometry x="580" y="230" width="120" height="60" as="geometry" />
        </mxCell>
        <mxCell id="7U7u2tzZs3FJr7_SHi5N-22" style="edgeStyle=orthogonalEdgeStyle;rounded=0;orthogonalLoop=1;jettySize=auto;html=1;endArrow=none;endFill=0;" edge="1" parent="1" source="7U7u2tzZs3FJr7_SHi5N-5" target="7U7u2tzZs3FJr7_SHi5N-2">
          <mxGeometry relative="1" as="geometry" />
        </mxCell>
        <mxCell id="7U7u2tzZs3FJr7_SHi5N-5" value="检验订单" style="rounded=0;whiteSpace=wrap;html=1;" vertex="1" parent="1">
          <mxGeometry y="360" width="80" height="40" as="geometry" />
        </mxCell>
        <mxCell id="7U7u2tzZs3FJr7_SHi5N-19" style="edgeStyle=orthogonalEdgeStyle;rounded=0;orthogonalLoop=1;jettySize=auto;html=1;endArrow=none;endFill=0;" edge="1" parent="1" source="7U7u2tzZs3FJr7_SHi5N-6" target="7U7u2tzZs3FJr7_SHi5N-2">
          <mxGeometry relative="1" as="geometry" />
        </mxCell>
        <mxCell id="7U7u2tzZs3FJr7_SHi5N-6" value="检查库存" style="rounded=0;whiteSpace=wrap;html=1;" vertex="1" parent="1">
          <mxGeometry x="80" y="360" width="80" height="40" as="geometry" />
        </mxCell>
        <mxCell id="7U7u2tzZs3FJr7_SHi5N-18" style="edgeStyle=orthogonalEdgeStyle;rounded=0;orthogonalLoop=1;jettySize=auto;html=1;endArrow=none;endFill=0;" edge="1" parent="1" source="7U7u2tzZs3FJr7_SHi5N-7" target="7U7u2tzZs3FJr7_SHi5N-2">
          <mxGeometry relative="1" as="geometry" />
        </mxCell>
        <mxCell id="7U7u2tzZs3FJr7_SHi5N-7" value="确定订单" style="rounded=0;whiteSpace=wrap;html=1;" vertex="1" parent="1">
          <mxGeometry x="160" y="360" width="80" height="40" as="geometry" />
        </mxCell>
        <mxCell id="7U7u2tzZs3FJr7_SHi5N-16" style="edgeStyle=orthogonalEdgeStyle;rounded=0;orthogonalLoop=1;jettySize=auto;html=1;endArrow=none;endFill=0;" edge="1" parent="1" source="7U7u2tzZs3FJr7_SHi5N-8" target="7U7u2tzZs3FJr7_SHi5N-3">
          <mxGeometry relative="1" as="geometry" />
        </mxCell>
        <mxCell id="7U7u2tzZs3FJr7_SHi5N-8" value="修改库存" style="rounded=0;whiteSpace=wrap;html=1;" vertex="1" parent="1">
          <mxGeometry x="260" y="360" width="80" height="40" as="geometry" />
        </mxCell>
        <mxCell id="7U7u2tzZs3FJr7_SHi5N-17" style="edgeStyle=orthogonalEdgeStyle;rounded=0;orthogonalLoop=1;jettySize=auto;html=1;endArrow=none;endFill=0;" edge="1" parent="1" source="7U7u2tzZs3FJr7_SHi5N-9" target="7U7u2tzZs3FJr7_SHi5N-3">
          <mxGeometry relative="1" as="geometry" />
        </mxCell>
        <mxCell id="7U7u2tzZs3FJr7_SHi5N-9" value="开备货单" style="rounded=0;whiteSpace=wrap;html=1;" vertex="1" parent="1">
          <mxGeometry x="340" y="360" width="80" height="40" as="geometry" />
        </mxCell>
        <mxCell id="7U7u2tzZs3FJr7_SHi5N-15" style="edgeStyle=orthogonalEdgeStyle;rounded=0;orthogonalLoop=1;jettySize=auto;html=1;endArrow=none;endFill=0;" edge="1" parent="1" source="7U7u2tzZs3FJr7_SHi5N-10" target="7U7u2tzZs3FJr7_SHi5N-3">
          <mxGeometry relative="1" as="geometry" />
        </mxCell>
        <mxCell id="7U7u2tzZs3FJr7_SHi5N-10" value="开缺货单" style="rounded=0;whiteSpace=wrap;html=1;" vertex="1" parent="1">
          <mxGeometry x="420" y="360" width="80" height="40" as="geometry" />
        </mxCell>
        <mxCell id="7U7u2tzZs3FJr7_SHi5N-13" style="edgeStyle=orthogonalEdgeStyle;rounded=0;orthogonalLoop=1;jettySize=auto;html=1;endArrow=none;endFill=0;" edge="1" parent="1" source="7U7u2tzZs3FJr7_SHi5N-11" target="7U7u2tzZs3FJr7_SHi5N-4">
          <mxGeometry relative="1" as="geometry" />
        </mxCell>
        <mxCell id="7U7u2tzZs3FJr7_SHi5N-11" value="选择统计条件" style="rounded=0;whiteSpace=wrap;html=1;" vertex="1" parent="1">
          <mxGeometry x="530" y="360" width="80" height="40" as="geometry" />
        </mxCell>
        <mxCell id="7U7u2tzZs3FJr7_SHi5N-14" style="edgeStyle=orthogonalEdgeStyle;rounded=0;orthogonalLoop=1;jettySize=auto;html=1;endArrow=none;endFill=0;" edge="1" parent="1" source="7U7u2tzZs3FJr7_SHi5N-12" target="7U7u2tzZs3FJr7_SHi5N-4">
          <mxGeometry relative="1" as="geometry" />
        </mxCell>
        <mxCell id="7U7u2tzZs3FJr7_SHi5N-12" value="开统计表" style="rounded=0;whiteSpace=wrap;html=1;" vertex="1" parent="1">
          <mxGeometry x="660" y="360" width="80" height="40" as="geometry" />
        </mxCell>
      </root>
    </mxGraphModel>
  </diagram>
</mxfile>
